<?xml version="1.0" encoding="UTF-8" standalone="no"?>
<!-- Created with Inkscape (http://www.inkscape.org/) -->

<svg
   xmlns:dc="http://purl.org/dc/elements/1.1/"
   xmlns:cc="http://creativecommons.org/ns#"
   xmlns:rdf="http://www.w3.org/1999/02/22-rdf-syntax-ns#"
   xmlns:svg="http://www.w3.org/2000/svg"
   xmlns="http://www.w3.org/2000/svg"
   xmlns:sodipodi="http://sodipodi.sourceforge.net/DTD/sodipodi-0.dtd"
   xmlns:inkscape="http://www.inkscape.org/namespaces/inkscape"
   width="185mm"
   height="240mm"
   viewBox="0 0 185 240"
   version="1.1"
   id="svg8"
   inkscape:version="0.92.1 r15371"
   sodipodi:docname="Lambang_Kab_Sukabumi.svg">
  <defs
     id="defs2">
    <pattern
       y="0"
       x="0"
       height="6"
       width="6"
       patternUnits="userSpaceOnUse"
       id="EMFhbasepattern" />
  </defs>
  <sodipodi:namedview
     id="base"
     pagecolor="#ffffff"
     bordercolor="#666666"
     borderopacity="1.0"
     inkscape:pageopacity="0.0"
     inkscape:pageshadow="2"
     inkscape:zoom="0.5"
     inkscape:cx="225.52194"
     inkscape:cy="461.97105"
     inkscape:document-units="mm"
     inkscape:current-layer="layer1"
     showgrid="false"
     inkscape:window-width="1366"
     inkscape:window-height="705"
     inkscape:window-x="-8"
     inkscape:window-y="-8"
     inkscape:window-maximized="1" />
  <metadata
     id="metadata5">
    <rdf:RDF>
      <cc:Work
         rdf:about="">
        <dc:format>image/svg+xml</dc:format>
        <dc:type
           rdf:resource="http://purl.org/dc/dcmitype/StillImage" />
        <dc:title></dc:title>
      </cc:Work>
    </rdf:RDF>
  </metadata>
  <g
     inkscape:label="Layer 1"
     inkscape:groupmode="layer"
     id="layer1"
     transform="translate(0,-57)"
     sodipodi:insensitive="true">
    <g
       id="g4605"
       transform="translate(-1.9646517e-6,-2e-6)">
      <path
         inkscape:connector-curvature="0"
         style="fill:#000000;fill-opacity:1;fill-rule:evenodd;stroke:none;stroke-width:0.26458332"
         d="M 92.500016,58.973364 H 1.568742 c 0,61.508326 -0.100056,123.016636 -0.07004,184.514966 0,9.44053 1.340755,16.70325 10.976189,20.37956 25.744516,9.84013 51.509043,19.66029 77.283575,29.48044 0.5303,0.27972 1.09061,0.58941 1.55087,0.83915 0.45026,0.27972 0.81046,0.55944 1.19068,0.83916 z m 0,0 h 90.931274 c 0,61.508326 0.10005,123.016636 0.07,184.514966 0,9.44053 -1.37078,16.70325 -10.9962,20.37956 -25.74452,9.84013 -51.51905,19.66029 -77.263574,29.48044 -0.56031,0.27972 -1.09061,0.58941 -1.55087,0.83915 -0.45026,0.27972 -0.83047,0.55944 -1.19067,0.83916 z"
         id="path4488" />
      <path
         inkscape:connector-curvature="0"
         style="fill:#ffd707;fill-opacity:1;fill-rule:evenodd;stroke:none;stroke-width:0.26458332"
         d="m 38.289446,207.4145 c -1.270715,-1.57841 -2.261275,-2.71727 -3.982244,-4.79519 -9.96562,-12.1578 -15.458717,-29.13078 -15.458717,-45.44442 0,-5.71427 -0.300169,-65.694127 0.100057,-69.600207 1.33075,1.418576 2.161218,2.707282 3.481963,4.25573 1.911077,2.287707 1.380778,2.717276 1.380778,6.27371 0,5.144847 0,10.299677 0,15.444517 0,6.90307 -0.330186,24.925 0.05003,30.47943 0.7104,0.60939 3.301861,2.35764 4.422494,2.78721 l 0.05003,-47.212664 c 0.580327,0.2997 5.863307,7.022964 6.653753,8.141844 0.990557,1.36862 0.590333,4.31567 0.590333,7.00297 0,8.09189 -0.360204,31.38853 0.02001,37.02288 l 4.452512,2.6873 0.02001,-39.7901 c 1.270717,0.6094 4.322437,5.07492 5.333005,6.29369 1.000565,1.21878 1.911078,1.77822 1.961108,3.75624 v 28.80111 c 0,7.56242 0.710401,13.74622 3.021703,20.01993 2.641489,7.10287 4.702651,8.75122 8.054541,13.47648 0.510289,0.70929 0.160091,0.0999 0.510289,0.72927 -4.29242,3.24674 -6.253528,3.07692 -11.766635,8.60137 -1.720972,1.74825 -3.301862,3.04695 -4.872747,5.12487 -0.94053,1.26872 -3.181794,5.2847 -4.022269,5.94403 z m 109.741884,-2.10788 c -6.12345,-9.21076 -11.26635,-13.24672 -21.17194,-18.47148 0.25014,-1.01898 5.08287,-6.39358 7.85443,-13.98597 2.4914,-6.77321 2.56144,-11.59837 2.56144,-19.64031 0,-7.25272 0,-14.53542 0,-21.78815 0,-5.4845 0.13008,-4.74524 2.62148,-8.20177 0.84048,-1.18881 3.99225,-5.91407 4.90277,-6.39359 l 0.05,38.67122 c 6.05342,-4.1858 4.47253,0.50949 4.47253,-17.71224 0,-4.94504 0,-9.89008 0,-14.84511 -0.05,-13.24672 -1.37078,-11.03893 3.94222,-18.47148 0.63035,-0.8891 2.36133,-3.54644 3.25183,-4.20578 l 0.13008,47.44242 c 1.09061,-0.29969 3.68207,-2.17781 4.42249,-2.71727 0.5303,-13.03693 0.02,-32.907 0.02,-47.192677 0,-4.315671 -0.48027,-3.496495 1.53086,-6.413568 0.96055,-1.428568 2.33132,-3.556434 3.32188,-4.525463 0.43024,6.19379 0.10005,26.293638 0.10005,33.955948 0,11.41855 0,22.80713 0,34.22568 0,11.74822 -1.32074,19.41054 -4.92277,29.05087 -2.80158,7.46251 -6.86387,14.06589 -11.76664,20.04989 -0.92052,1.11888 -0.21012,0.70929 -1.32074,1.16883 z M 93.190396,105.02718 c 3.93222,1.95804 11.506494,10.44952 14.228034,14.03593 12.83724,16.84311 13.84781,35.06483 8.10457,55.20464 -0.56032,1.95803 -1.01057,3.40658 -1.65093,5.35463 -0.61035,1.82816 -1.52086,3.5864 -1.85105,5.43455 11.73662,3.57641 18.85063,7.20277 26.98522,15.42453 1.40079,1.41857 5.11288,5.96402 5.99338,8.1718 -1.90107,3.986 -15.51875,12.91705 -20.9318,15.37458 -9.33527,4.26573 -17.77002,6.67331 -29.686744,7.05293 -15.498742,0.48951 -30.066957,-3.95603 -42.29385,-11.99797 -3.141771,-2.07791 -8.434756,-6.04393 -10.265789,-8.30167 0.740418,-5.19479 10.195751,-13.87609 14.7183,-17.20275 6.433627,-4.74524 13.827797,-7.30268 22.492682,-9.36061 -0.360204,-1.77822 -16.799473,-16.79316 -9.965619,-44.80507 2.161217,-8.88109 9.635432,-21.82811 16.059056,-27.56236 2.42136,-2.17782 5.6732,-5.63435 8.06454,-6.82316 z M 170.74413,71.530771 14.145834,71.460841 c -0.280158,10.019952 -0.02001,20.319624 0,30.269649 v 45.44443 c 0,4.59539 -0.350198,10.62933 0.03002,15.07488 0.760428,9.41056 2.411359,16.51344 5.593153,24.58534 2.791574,7.02296 6.883882,13.64632 11.156291,19.18077 13.877824,17.96198 36.820761,29.69022 61.344588,29.96994 19.490994,0.24975 38.041454,-8.00197 50.138274,-18.17177 6.68377,-5.5844 13.08738,-12.91705 17.45984,-20.4495 6.89389,-11.89807 9.20519,-20.49944 10.8061,-34.895 0.45025,-4.25573 0.10005,-10.52944 0.10005,-14.99497 0,-24.91501 0.51029,-51.428424 -0.03,-75.943839 z"
         id="path4490" />
      <path
         inkscape:connector-curvature="0"
         style="fill:#ffd707;fill-opacity:1;fill-rule:evenodd;stroke:none;stroke-width:0.26458332"
         d="m 98.673496,131.11102 c -1.52086,1.3986 -2.36134,1.13886 -3.15178,3.52647 -1.65093,4.92506 2.3113,11.2687 6.303564,13.01694 -0.96055,2.33766 -7.574284,4.26573 -7.144034,12.53743 0.16008,2.88711 1.50084,5.04494 3.28185,6.44354 5.112884,3.986 13.187434,10.70926 8.694904,17.58237 -3.10175,4.74524 -9.225204,7.79218 -10.345844,8.98099 1.22069,1.42857 3.12176,4.26572 4.472534,5.02496 3.94222,-4.59539 8.64487,-15.32463 10.59597,-21.99794 3.28185,-11.10886 -11.23633,-13.36659 -9.65544,-22.35758 1.02058,-5.73425 9.35527,-3.52646 7.4442,1.34865 -0.58033,1.4985 -1.6009,1.92807 -3.12176,2.40759 3.76212,2.33765 7.85442,-2.15784 7.08399,-6.1838 -1.09062,-5.86412 -8.5148,-5.35463 -12.67715,-9.72026 -4.782704,-5.05493 0.84047,-8.78119 3.8922,-6.90307 1.90107,1.1888 1.44081,3.80618 1.01057,5.91407 2.11119,0.02 3.23182,-2.02797 3.46195,-3.93606 0.61034,-5.55442 -5.11288,-5.58439 -7.70435,-7.23274 -3.481964,-2.22777 -2.771564,-6.24374 0.38022,-5.25473 0.86049,0.27972 1.22069,0.73926 2.08117,1.14885 -0.20011,-3.12687 -3.30186,-5.17481 -5.793274,-7.10288 -1.09061,-0.86913 -1.32074,-1.52847 -2.56144,-2.18781 -0.10006,2.76723 -0.1801,6.47351 0,9.21077 0.25014,3.75623 1.75099,3.75623 3.45195,5.73424 z"
         id="path4492" />
      <path
         inkscape:connector-curvature="0"
         style="fill:#03954a;fill-opacity:1;fill-rule:evenodd;stroke:none;stroke-width:0.26458332"
         d="m 91.099226,171.40062 c 0.16009,-4.51547 0.05,-9.13084 0.05,-13.64631 0.03,-8.07191 0.82046,-5.63435 -3.86218,-10.1798 -1.47083,-1.43855 -13.007336,-12.32763 -14.428138,-13.18677 l -0.69039,1.18881 c -0.940531,2.66732 -2.181228,8.25172 -2.571449,11.11885 -0.930526,7.58239 -0.860486,6.34363 4.352454,10.59937 2.541432,2.0879 15.858943,13.60635 17.149673,14.10585 z"
         id="path4494" />
      <path
         inkscape:connector-curvature="0"
         style="fill:#03954a;fill-opacity:1;fill-rule:evenodd;stroke:none;stroke-width:0.26458332"
         d="m 43.982657,210.50141 c 1.120632,0.58941 1.961105,1.65833 3.001693,2.4875 3.021703,2.36763 6.783824,5.3846 10.215758,6.8831 l 13.167426,-19.39055 c -0.99056,-0.80919 -4.172355,-2.27772 -5.573144,-3.14685 -1.650931,-1.00898 -4.082301,-3.06692 -5.282977,-3.49649 -4.672635,2.30769 -13.927855,11.69827 -15.528756,16.66329 z"
         id="path4496" />
      <path
         inkscape:connector-curvature="0"
         style="fill:#03954a;fill-opacity:1;fill-rule:evenodd;stroke:none;stroke-width:0.26458332"
         d="m 108.55907,215.40649 c 1.93109,3.42656 4.01226,6.87311 6.17348,9.92005 2.57145,0.22977 12.63713,-4.79519 13.92786,-6.06392 -0.8905,-2.1878 -4.72267,-7.10288 -6.1935,-9.26071 -1.83103,-2.71727 -4.45251,-6.17381 -6.20349,-9.09088 -1.53087,0.20979 -4.47253,1.52846 -6.25353,2.0879 -1.55087,0.47952 -5.79326,1.26873 -6.63374,1.71828 z"
         id="path4498" />
      <path
         inkscape:connector-curvature="0"
         style="fill:#03954a;fill-opacity:1;fill-rule:evenodd;stroke:none;stroke-width:0.26458332"
         d="m 91.129236,192.0599 c 0.20012,-4.54544 0,-9.41056 0.02,-14.00595 0.05,-4.05593 0.33019,-3.06693 -6.02339,-8.27171 -1.98112,-1.62836 -14.408126,-12.63732 -15.578788,-12.93702 -0.380214,5.73425 3.942223,15.80415 7.274102,20.92901 2.741547,4.23575 9.625426,12.04792 14.308066,14.28567 z"
         id="path4500" />
      <path
         inkscape:connector-curvature="0"
         style="fill:#03954a;fill-opacity:1;fill-rule:evenodd;stroke:none;stroke-width:0.26458332"
         d="m 72.298622,226.21565 c 0.890503,-1.72827 1.981118,-3.19679 3.071731,-5.07491 2.211247,-3.75623 6.833854,-12.71725 7.114013,-16.72323 -1.190673,-0.52947 -3.662066,-0.91908 -5.202936,-1.36863 -1.710963,-0.50949 -3.261839,-1.4985 -5.012825,-1.39859 -2.001128,2.50748 -12.957305,18.50144 -13.057362,19.41053 1.851043,1.24875 10.726047,5.02496 13.087379,5.15483 z"
         id="path4502" />
      <path
         inkscape:connector-curvature="0"
         style="fill:#03954a;fill-opacity:1;fill-rule:evenodd;stroke:none;stroke-width:0.26458332"
         d="m 118.32458,199.87207 c 0.22012,1.67831 5.05285,7.76221 6.01339,9.19078 1.35076,1.998 5.24296,8.11187 6.48366,8.981 1.93108,-1.11888 4.40248,-2.96703 6.20349,-4.3956 0.96054,-0.75923 5.61317,-4.53545 5.61317,-5.29469 -0.68039,-1.75823 -5.03284,-6.88309 -6.42363,-8.12185 -3.0317,-2.63736 -5.13289,-4.49549 -8.44475,-6.37361 z"
         id="path4504" />
      <path
         inkscape:connector-curvature="0"
         style="fill:#03954a;fill-opacity:1;fill-rule:evenodd;stroke:none;stroke-width:0.26458332"
         d="m 73.869506,132.0301 c 3.742111,2.78721 15.09851,14.73522 17.25973,15.32463 l 0.02,-17.46248 c -1.80101,-1.18881 -3.65206,-2.91708 -5.51311,-4.56542 -1.0706,-0.96903 -4.092301,-3.77622 -5.483086,-4.54545 -1.150649,1.0989 -6.253528,9.01097 -6.283545,11.24872 z"
         id="path4506" />
      <path
         inkscape:connector-curvature="0"
         style="fill:#03954a;fill-opacity:1;fill-rule:evenodd;stroke:none;stroke-width:0.26458332"
         d="m 61.392473,192.63932 c 1.300734,2.05794 7.164038,4.87511 9.555388,6.11387 4.29242,2.23776 7.274099,2.66733 11.816662,3.986 1.140643,-1.99799 0.920523,-6.5734 0.64036,-9.21076 l -1.480833,-5.73425 c -0.280159,-0.77922 -0.530299,-0.98901 -0.830469,-1.8981 -6.993943,0.37962 -14.41813,4.36563 -19.701108,6.74324 z"
         id="path4508" />
      <path
         inkscape:connector-curvature="0"
         style="fill:#ffd707;fill-opacity:1;fill-rule:evenodd;stroke:none;stroke-width:0.26458332"
         d="m 94.230986,205.83609 c -2.11119,-1.06893 -6.07342,-2.00799 -7.47421,-3.24675 0.05,-1.59839 0.23013,-3.19679 0.1801,-4.87511 -0.05,-1.92806 -0.59033,-1.97801 -1.781,-2.55743 -0.5303,3.16682 0.05,6.06392 -0.71041,9.64033 -1.200672,5.70428 -3.18179,9.34063 -5.793261,14.1558 -0.690391,1.24875 -1.250707,2.00799 -2.031146,3.14685 -1.270717,1.80818 -1.150649,2.00798 1.210683,2.4875 l 1.580891,-2.76722 c 1.851043,0.27972 7.424183,3.07691 9.375283,3.986 2.24127,1.03896 2.31131,1.41858 4.88276,0.90909 1.65093,-0.32967 3.9122,-0.3996 5.31299,-1.10889 -0.99056,-1.31868 -14.76832,-6.09389 -17.109646,-7.92206 l 1.320744,-2.40758 15.478732,5.5844 c -0.40023,-3.47651 -1.45082,-3.0969 -6.25353,-5.35463 -1.9511,-0.93906 -6.50367,-2.73725 -7.74437,-3.83615 0.25015,-1.51848 0.81046,-2.68731 1.17066,-4.1858 l 8.07456,2.79719 z"
         id="path4510" />
      <path
         inkscape:connector-curvature="0"
         style="fill:#03954a;fill-opacity:1;fill-rule:evenodd;stroke:none;stroke-width:0.26458332"
         d="m 102.66575,202.83909 c 4.70265,0.35964 16.15911,-4.81517 20.68166,-8.01196 1.17066,-0.83916 1.86105,-1.13886 2.44138,-1.92807 -1.80102,-2.18781 -13.18744,-6.04394 -14.98845,-5.94404 -2.21125,4.49549 -3.43194,7.59239 -6.28355,11.79817 -0.91051,1.32867 -2.08117,2.31768 -1.85104,4.0859 z"
         id="path4512" />
      <path
         inkscape:connector-curvature="0"
         style="fill:#03954a;fill-opacity:1;fill-rule:evenodd;stroke:none;stroke-width:0.26458332"
         d="m 96.062016,191.27069 c 1.01057,0.03 11.076254,-6.79318 10.666024,-11.92803 -0.30017,-4.33566 -4.54256,-7.25273 -7.444204,-9.97001 -0.79045,-0.75923 -2.1312,-2.45753 -3.17179,-2.37761 z"
         id="path4514" />
      <path
         inkscape:connector-curvature="0"
         style="fill:#03954a;fill-opacity:1;fill-rule:evenodd;stroke:none;stroke-width:0.26458332"
         d="m 81.753952,118.68349 c 0.710401,0.98901 8.054544,7.35262 9.345274,7.96201 l 0.03,-17.35259 c -2.24127,0.90908 -8.234646,7.53244 -9.375291,9.39058 z"
         id="path4516" />
      <path
         inkscape:connector-curvature="0"
         style="fill:#03954a;fill-opacity:1;fill-rule:evenodd;stroke:none;stroke-width:0.26458332"
         d="m 108.15885,154.02804 c 0,-1.36862 -1.12063,-2.4875 -2.49141,-2.4875 -1.37077,0 -2.4914,1.11888 -2.4914,2.4875 0,1.36863 1.12063,2.48751 2.4914,2.48751 1.37078,0 2.49141,-1.11888 2.49141,-2.48751 z"
         id="path4518" />
      <path
         inkscape:connector-curvature="0"
         style="fill:#ffd707;fill-opacity:1;fill-rule:evenodd;stroke:none;stroke-width:0.26458332"
         d="m 92.119796,256.71506 c 1.19067,0.0699 4.85274,-0.17982 6.32357,-0.27972 19.821184,-1.39859 37.030884,-7.82215 52.939854,-19.51043 2.69152,-1.98801 9.78552,-8.50147 11.20632,-8.83114 2.08117,-0.48951 3.53199,0.70928 3.76212,2.27771 -2.49141,0.12987 -0.81046,-4.3856 -7.59428,1.80819 -4.17236,3.80618 -9.43532,7.58239 -14.25804,10.57939 -1.88106,1.13886 -7.06399,3.72626 -7.85443,4.66532 1.22069,2.25774 5.56314,5.10488 8.41474,6.49349 11.25635,5.61437 27.36543,3.09689 25.45435,-12.73723 -1.27071,0.0499 -4.54256,3.95604 -8.33469,4.18581 -4.72267,0.30968 -5.58315,-4.91508 -3.98225,-6.77321 3.91221,-4.43556 14.93842,0.37962 14.96844,-9.95003 0,-4.10588 -1.65093,-7.76221 -5.11288,-8.8711 -4.72267,-1.52846 -8.48479,1.33866 -10.41588,1.48851 -1.88106,-2.04795 -3.61203,-4.74524 -5.46308,-6.26372 -2.90163,1.62837 -7.2741,9.0809 -25.08414,17.66229 -9.73549,4.71527 -22.3426,7.79218 -34.969724,7.81216 -13.597666,0 -24.37374,-3.24674 -35.1198,-7.99198 -5.903328,-2.58741 -14.568213,-8.19179 -19.210833,-12.60736 l -5.443069,-4.79519 c -1.120629,1.54845 -2.411359,4.20578 -3.30186,5.75423 -2.591461,-0.32967 -4.422494,-1.8981 -7.854429,-1.46853 -7.8044,0.95904 -9.915591,13.82614 -2.11119,16.13382 4.092307,1.21878 13.517622,0.83916 10.445888,7.56242 -2.821589,6.11387 -11.236334,-1.4985 -12.457022,-1.82817 -0.580327,5.20478 -0.150085,8.12186 2.931653,11.23873 7.544254,7.64234 23.042993,3.73626 30.086963,-4.05593 -1.500846,-1.18881 -5.893321,-3.19679 -7.954483,-4.3856 -3.862179,-2.25774 -7.724357,-4.92506 -11.186309,-7.61237 L 24.061424,230.851 c -2.541433,-1.5984 -2.671506,0.83916 -4.422493,0.73926 0.360203,-1.46853 1.730976,-2.55744 3.401918,-2.20779 1.380779,0.30969 2.901636,1.5984 3.74211,2.38761 19.180813,17.4525 40.252696,23.51642 65.336837,24.94498 z"
         id="path4520" />
      <path
         inkscape:connector-curvature="0"
         style="fill:#000000;fill-opacity:1;fill-rule:nonzero;stroke:none;stroke-width:0.26458332"
         d="m 33.916981,227.12474 2.471394,2.15784 -3.301863,3.77621 -0.660371,-0.54945 0.500282,-0.98901 c -0.910513,0.26973 -1.750988,0.0699 -2.511417,-0.58941 -0.810455,-0.70929 -1.170659,-1.56842 -1.090615,-2.61737 0.07004,-1.05894 0.580329,-2.0979 1.500846,-3.1968 1.010571,-1.15884 2.051156,-1.86812 3.121761,-2.14784 1.070605,-0.27972 2.061162,-0.03 2.951665,0.75924 1.47083,1.26872 1.570884,2.7872 0.350197,4.56542 l -1.620914,-0.98901 c 0.710401,-1.01898 0.780439,-1.77822 0.200113,-2.28771 -0.360204,-0.2997 -0.790446,-0.34965 -1.300734,-0.1998 -0.500283,0.14985 -1.160653,0.70929 -2.001129,1.67832 -0.740415,0.82917 -1.150649,1.51848 -1.250704,2.04795 -0.100057,0.53946 0.05003,0.96902 0.460259,1.31867 0.64036,0.53946 1.370774,0.35964 2.18123,-0.57941 l -1.060598,-0.93906 z m 6.023396,-0.80919 4.632613,3.32666 -0.92052,1.31868 -2.971675,-2.13785 -1.290728,1.77821 2.311302,1.64835 -0.94053,1.2987 -2.311302,-1.64835 -1.350761,1.8981 2.971675,2.12786 -0.990557,1.34865 -4.652624,-3.32666 z m 4.802708,3.39659 2.621479,1.54845 -1.831033,5.6843 4.242392,-4.23575 2.541432,1.4985 -4.772689,8.09188 -1.680948,-0.98901 4.022267,-6.77321 -5.673199,5.80418 -1.290727,-0.77922 2.481397,-7.66231 -4.01226,6.77321 -1.450819,-0.86913 z m 9.785517,5.43455 1.911078,0.85914 -1.4208,9.6703 -1.93109,-0.86913 0.350197,-1.97801 -2.391347,-1.08891 -1.2407,1.5984 -1.730975,-0.78921 z m -0.760428,6.06392 0.710401,-3.8861 -2.41136,3.12686 z m 5.443069,-3.986 1.931088,0.75924 -1.400789,3.52646 2.11119,0.83916 1.390785,-3.52646 1.911077,0.75924 -3.451947,8.73124 -1.931088,-0.75924 1.420802,-3.57641 -2.111193,-0.83916 -1.420799,3.57641 -1.911077,-0.75924 z m 8.864997,3.19679 2.871621,0.65934 c 0.560316,0.12987 0.970547,0.24975 1.270717,0.37962 0.280156,0.0999 0.560316,0.32967 0.790445,0.60939 0.25014,0.30969 0.430242,0.65934 0.510286,1.08891 0.07004,0.43956 0.07004,0.88911 -0.05003,1.3986 -0.260147,1.13885 -0.890503,1.84814 -1.86105,2.10788 l 0.760431,4.3856 -2.181231,-0.50948 -0.380214,-3.90609 -1.020577,-0.22977 -0.840473,3.63636 -2.001128,-0.48951 z m 1.650931,1.92807 -0.610343,2.58741 0.890502,0.1998 c 0.790446,0.17981 1.300734,-0.16984 1.500847,-1.05894 0.08004,-0.30969 0.08004,-0.55944 0,-0.78921 -0.08004,-0.1998 -0.180102,-0.37962 -0.330187,-0.47952 -0.130075,-0.0999 -0.360204,-0.20979 -0.640361,-0.25974 z m 5.413052,-0.2997 2.031146,0.37962 -1.720969,9.23074 -2.011135,-0.37962 z m 3.181795,0.62937 2.691519,0.32967 c 0.810455,0.0999 1.450816,0.22977 1.88106,0.42957 0.430242,0.17982 0.760429,0.53946 1.010569,1.06893 0.26015,0.50949 0.33019,1.11887 0.26015,1.82816 -0.08,0.67932 -0.28016,1.23876 -0.590337,1.66833 -0.300168,0.40959 -0.680382,0.68931 -1.140643,0.83916 -0.460259,0.15984 -1.140643,0.15984 -2.031145,0.0499 l -0.740418,-0.0699 -0.400225,3.44654 -2.061162,-0.24975 z m 1.88106,1.77822 -0.330187,2.76722 0.630357,0.0699 c 0.560316,0.0499 0.94053,-0.02 1.140643,-0.27972 0.180101,-0.21978 0.310176,-0.54945 0.360203,-0.95904 0.05003,-0.35964 0,-0.65934 -0.08004,-0.8891 -0.100058,-0.22977 -0.250142,-0.37962 -0.400227,-0.45954 -0.160089,-0.0999 -0.380215,-0.14985 -0.690388,-0.17982 z m 6.303558,-0.91908 2.08117,0.15984 1.98112,9.56041 -2.11119,-0.14985 -0.33019,-1.97802 -2.64149,-0.19979 -0.61034,1.89809 -1.881064,-0.12987 z m 1.37077,5.96402 -0.66037,-3.90609 -1.22069,3.75624 z m 3.17179,-5.65433 2.06116,-0.0799 0.13007,3.80618 2.26128,-0.0699 -0.13008,-3.80618 2.06117,-0.0499 0.33018,9.38059 -2.06116,0.0799 -0.13007,-3.85613 -2.28129,0.0799 0.12007,3.85613 -2.05116,0.0499 z m 9.985634,-0.47952 2.04115,-0.25974 0.91051,7.61236 3.02171,-0.37961 0.23013,1.74824 -5.08287,0.60939 z m 12.63713,2.73725 c 0.61034,3.16683 -0.23013,4.97501 -2.4714,5.37461 -1.09061,0.22977 -2.00113,-0.02 -2.74154,-0.72927 -0.71041,-0.70928 -1.22069,-1.82816 -1.50085,-3.40658 -0.58033,-3.16682 0.23013,-4.94504 2.47139,-5.37461 1.09062,-0.1998 2.00113,0.0499 2.71153,0.73926 0.74042,0.67932 1.25071,1.81818 1.53087,3.39659 z m -2.14121,0.40959 c -0.23013,-1.24875 -0.48027,-2.05793 -0.76043,-2.43755 -0.25014,-0.37962 -0.61035,-0.53946 -1.04059,-0.45954 -0.43024,0.0799 -0.69039,0.35964 -0.81045,0.80919 -0.10006,0.43956 -0.05,1.29869 0.1801,2.53745 0.22012,1.21878 0.48027,2.03796 0.76043,2.41758 0.25014,0.37962 0.61034,0.55944 1.04058,0.47952 0.40023,-0.0999 0.68039,-0.35964 0.81046,-0.80919 0.13007,-0.43956 0.05,-1.2987 -0.1801,-2.53746 z m 1.86105,-5.23475 1.98111,-0.54945 1.04059,3.64635 2.18123,-0.60939 -1.04059,-3.64634 1.98112,-0.55945 2.54143,9.05093 -1.98111,0.55944 -1.04059,-3.72626 -2.18123,0.60938 1.04059,3.72627 -1.98112,0.55944 z m 10.1157,-3.14684 1.90107,-0.75924 2.3113,5.81417 c 0.31018,0.73926 0.46027,1.31868 0.54031,1.77821 0.05,0.44955 -0.05,0.85914 -0.31018,1.23876 -0.23013,0.37962 -0.68038,0.70929 -1.37077,0.98901 -0.28015,0.0999 -0.69039,0.20979 -1.22068,0.32967 l -0.63036,-1.61838 c 0.33019,-0.0499 0.61034,-0.12987 0.81045,-0.20979 0.33019,-0.14985 0.5303,-0.32966 0.56032,-0.55943 0.05,-0.1998 -0.05,-0.60939 -0.28016,-1.18881 z m 3.10175,-1.20879 1.87105,-0.86913 3.8922,8.5814 -1.88106,0.82916 z m 3.09174,-1.37862 2.06117,-1.03896 4.8027,4.13586 -2.64149,-5.22476 1.4208,-0.70929 4.2424,8.40157 -1.65093,0.82917 -5.61317,-4.79519 3.05172,6.09389 -1.4208,0.70929 z m 7.93448,-4.25573 1.75098,-1.11888 7.32413,6.49349 -1.781,1.13886 -1.45082,-1.38861 -2.23126,1.41858 0.66038,1.87811 -1.60091,1.01898 z m 4.65262,3.97601 -2.87162,-2.73725 1.29073,3.72626 z m -1.32074,-6.06391 1.70095,-1.21878 4.59259,4.72526 -2.79157,-6.01397 1.55087,-1.08891 4.75268,4.64534 -2.87162,-5.99399 1.42081,-1.01898 3.86217,8.86112 -1.52085,1.08891 -4.83273,-4.59539 2.77156,6.06391 -1.50084,1.06893 z m 8.15459,-6.16383 1.55088,-1.33865 6.12345,7.15283 -1.58089,1.33865 z"
         id="path4522" />
    </g>
  </g>
</svg>
